<svg width="358" height="44" viewBox="0 0 462 57" fill="none" xmlns="http://www.w3.org/2000/svg">
                                    <g clip-path="url(#clip0)">
                                        <path d="M40.9922 18.8773C41.607 26.6658 37.8153 33.7369 31.7689 37.6312C31.154 38.0411 31.0516 38.7585 31.4615 39.2709L44.1691 57H31.4615L22.7506 44.8048L18.139 38.451C17.4217 37.4262 17.0117 36.299 17.0117 34.9667C17.0117 31.9948 19.1638 29.6377 22.0333 29.3303C23.0581 29.2278 23.9804 28.9204 24.8003 28.408C28.0796 26.6658 30.1292 22.9765 29.5144 18.9798C28.8995 15.0855 25.6201 11.9086 21.6234 11.3962C16.1919 10.7813 11.5803 14.8805 11.3753 20.107V56.8975H0V20.517C0 8.42429 10.453 -1.20887 22.8531 0.123374C32.5888 1.14818 40.2748 9.14165 40.9922 18.8773Z" fill="black"></path>
                                        <path d="M131.79 6.27226C131.79 2.78793 134.557 0.020961 138.041 0.020961C141.525 0.020961 144.292 2.78793 144.292 6.27226C144.292 9.7566 141.525 12.5236 138.041 12.5236C134.557 12.5236 131.79 9.7566 131.79 6.27226Z" fill="black"></path>
                                        <path d="M132.405 16.0079H143.78V57H132.405V16.0079Z" fill="black"></path>
                                        <path fill-rule="evenodd" clip-rule="evenodd" d="M64.3577 16.0079C52.9824 16.0079 43.8616 25.2311 43.8616 36.5039C43.8616 47.8793 53.0849 57 64.3577 57C75.733 57 84.8538 47.7768 84.8538 36.5039C84.8538 25.1286 75.733 16.0079 64.3577 16.0079ZM64.3577 45.6247C59.3362 45.6247 55.237 41.5255 55.237 36.5039C55.237 31.4824 59.3362 27.3832 64.3577 27.3832C69.3793 27.3832 73.4785 31.4824 73.4785 36.5039C73.4785 41.5255 69.3793 45.6247 64.3577 45.6247Z" fill="black"></path>
                                        <path fill-rule="evenodd" clip-rule="evenodd" d="M178.418 1.76316H189.794V36.504C189.794 47.7769 180.57 57.0001 169.298 57.0001C158.025 57.0001 148.802 47.8793 148.802 36.504C148.802 25.2312 157.922 16.0079 169.298 16.0079C172.577 16.0079 175.651 16.8278 178.418 18.16V1.76316ZM160.177 36.504C160.177 41.5256 164.276 45.6248 169.298 45.6248C174.319 45.6248 178.418 41.5256 178.418 36.504C178.418 31.4825 174.319 27.3833 169.298 27.3833C164.276 27.3833 160.177 31.4825 160.177 36.504Z" fill="black"></path>
                                        <path d="M127.076 15.9055H114.368L101.866 33.1222C101.353 33.8395 101.046 34.6594 100.841 35.4792V1.76316H89.4654V57.0001H100.841V37.4263C100.943 38.2462 101.353 39.066 101.866 39.7834L114.368 57.0001H127.076L112.626 37.1189C112.319 36.709 112.319 36.1966 112.626 35.7866L127.076 15.9055Z" fill="black"></path>
                                        <path d="M285.316 12.0206V47.8246L276.34 56.8V3.14276L285.316 12.0206Z" fill="black"></path>
                                        <path d="M330.876 52.3122C333.998 49.1904 335.559 45.4831 335.559 41.1906C335.559 36.898 333.998 33.1908 330.778 29.9713C327.754 26.947 324.047 25.3861 319.657 25.3861H306.193C304.34 25.3861 302.681 24.7032 301.413 23.3373C300.145 22.0691 299.462 20.4106 299.462 18.557C299.462 17.6789 299.559 16.8009 299.95 16.0204C300.34 15.24 300.828 14.4595 301.413 13.8742C301.998 13.1912 302.779 12.7034 303.559 12.4108C304.34 12.1181 305.218 11.923 306.193 11.923V2.94759C301.803 2.94759 298.096 4.50852 295.072 7.6304C292.047 10.6547 290.486 14.3619 290.486 18.6545C290.486 23.1422 292.047 26.8494 295.072 29.8738C298.096 32.8981 301.803 34.459 306.193 34.459H319.657C321.608 34.459 323.169 35.1419 324.437 36.5077C325.803 37.8736 326.486 39.4345 326.486 41.2881C326.486 42.2637 326.291 43.1417 325.998 43.9222C325.608 44.8002 325.12 45.4831 324.534 46.0685C323.949 46.6538 323.169 47.1416 322.388 47.4343C321.608 47.727 320.73 47.9221 319.754 47.9221V56.8975C324.144 56.8975 327.851 55.3366 330.876 52.3122Z" fill="black"></path>
                                        <path d="M349.705 12.0206V47.8246L340.729 56.8V3.14276L349.705 12.0206Z" fill="black"></path>
                                        <path fill-rule="evenodd" clip-rule="evenodd" d="M401.02 48.9953C406.386 43.8247 409.02 37.4834 409.02 29.9713C409.02 22.5569 406.288 16.2156 401.02 10.9474C395.752 5.67925 389.411 3.04517 381.996 3.04517C374.484 3.04517 368.143 5.67925 362.972 10.9474C357.704 16.2156 355.07 22.5569 355.07 29.9713C355.07 37.3858 357.704 43.7271 362.972 48.9953C368.241 54.2634 374.582 56.8975 381.996 56.8975C389.411 56.8975 395.752 54.2634 401.02 48.9953ZM394.679 17.2887C398.191 20.8008 399.947 25.0934 399.947 29.9713C399.947 34.8493 398.191 39.1419 394.679 42.7515C391.167 46.1661 386.874 47.9221 381.996 47.9221C377.021 47.9221 372.826 46.2636 369.216 42.7515C365.802 39.1419 364.046 34.9468 364.046 29.9713C364.046 24.9959 365.704 20.8008 369.216 17.2887C372.826 13.7766 377.118 12.0206 381.996 12.0206C386.972 12.0206 391.167 13.7766 394.679 17.2887Z" fill="black"></path>
                                        <path d="M250.487 46.8478L245.414 56.8963L218.488 3.04395H228.537L233.024 11.9218L237.512 20.8972L240.948 27.8104L250.487 46.8478Z" fill="black"></path>
                                        <path d="M272.341 3.04395L255.56 36.7017L250.585 26.6531L262.39 3.04395H272.341Z" fill="black"></path>
                                        <path d="M414.386 2.93779L414.288 2.85H414.386V2.93779Z" fill="black"></path>
                                        <path d="M414.386 2.93779V56.7024H423.264V24.508L459.165 56.7999V43.2393L414.386 2.93779Z" fill="black"></path>
                                        <path d="M459.068 29.8737V2.85H450.092V21.7764L459.068 29.8737Z" fill="black"></path>
                                    </g>
                                    <defs>
                                    	<clipPath id="clip0">
                                    		<rect width="461.7" height="57" fill="white"></rect>
                                    	</clipPath>
                                    </defs>
                                    </svg>
