<svg width="153" height="20" viewBox="0 0 153 20" fill="none" xmlns="http://www.w3.org/2000/svg">
<g clip-path="url(#clip0)">
<path d="M14.3832 6.62361C14.599 9.35642 13.2685 11.8375 11.147 13.2039C10.9312 13.3478 10.8953 13.5995 11.0391 13.7793L15.4979 20H11.0391L7.98268 15.721L6.36457 13.4916C6.11287 13.132 5.96903 12.7365 5.96903 12.269C5.96903 11.2262 6.72415 10.3992 7.73098 10.2913C8.09056 10.2554 8.41418 10.1475 8.70184 9.96771C9.8525 9.35642 10.5717 8.06193 10.3559 6.65957C10.1402 5.29316 8.98951 4.17846 7.58715 3.99867C5.68137 3.78292 4.06326 5.22125 3.99134 7.05511V19.964H0V7.19894C0 2.95589 3.66772 -0.424165 8.01864 0.043289C11.4347 0.402869 14.1315 3.2076 14.3832 6.62361Z" fill="black"/>
<path d="M46.242 2.20079C46.242 0.978221 47.2129 0.00735474 48.4355 0.00735474C49.658 0.00735474 50.6289 0.978221 50.6289 2.20079C50.6289 3.42337 49.658 4.39424 48.4355 4.39424C47.2129 4.39424 46.242 3.42337 46.242 2.20079Z" fill="black"/>
<path d="M98.9182 12.3843V0.854092H95.7153V15.5872L98.9182 12.3843Z" fill="black"/>
<path d="M108.562 19.9288V19.1631L111.409 13.5943L114.256 7.97153L117.068 13.5943H120.698L114.256 0.854092L106.231 16.726H98.9182L95.7153 19.9288H108.562Z" fill="black"/>
<path d="M93.7224 15.6584L90.5196 14.5907C89.879 15.2669 89.1673 15.8007 88.3488 16.2633C87.5303 16.6192 86.6406 16.7972 85.6797 16.7972C83.9359 16.7972 82.3701 16.1922 81.1246 14.9466C79.879 13.7011 79.274 12.1708 79.274 10.427C79.274 8.68327 79.879 7.18861 81.1246 5.94306C82.4057 4.69751 83.9359 4.09253 85.6797 4.09253C87.4591 4.09253 88.9537 4.69751 90.1993 5.94306L92.5125 3.70107C91.6228 2.84697 90.5907 2.13523 89.4164 1.63701C88.2064 1.13879 86.9609 0.889679 85.6441 0.889679C82.9751 0.889679 80.6975 1.81495 78.847 3.70107C76.9253 5.5516 76 7.79359 76 10.427C76 13.0605 76.9609 15.3025 78.847 17.153C80.7331 19.0036 82.9751 19.9644 85.6441 19.9644C86.4982 19.9644 87.2811 19.8577 88.0641 19.6441C88.8826 19.4662 89.5943 19.1815 90.2705 18.79C90.9822 18.3986 91.6228 17.9715 92.1922 17.4377C92.7972 16.9039 93.2954 16.2989 93.7224 15.6584Z" fill="black"/>
<path d="M93.7224 8.79004H85.6797V11.9573H90.5196L93.7224 8.79004Z" fill="black"/>
<path d="M123.865 19.9288H120.27L118.669 16.7616H122.228L123.865 19.9288Z" fill="black"/>
<path d="M123.082 10.3559C124.185 11.4591 125.502 11.9929 127.068 11.9929V12.0641H131.872C132.548 12.0641 133.082 12.3132 133.58 12.7758C134.043 13.2384 134.292 13.8078 134.292 14.4484C134.292 14.7687 134.221 15.089 134.114 15.3737C134.007 15.6584 133.829 15.9075 133.616 16.121C133.402 16.3345 133.153 16.5125 132.833 16.6192C132.548 16.7616 132.228 16.7972 131.907 16.7972V20C133.473 20 134.826 19.4306 135.893 18.363C136.996 17.2598 137.566 15.9431 137.566 14.4128C137.566 12.8826 136.996 11.5658 135.893 10.4626C134.79 9.35943 133.473 8.82562 131.907 8.82562H127.103C126.391 8.82562 125.858 8.57651 125.359 8.11388C124.897 7.61566 124.683 7.08185 124.683 6.40569C124.683 6.121 124.754 5.80071 124.861 5.51601C124.968 5.23132 125.146 4.98221 125.359 4.76868C125.573 4.51957 125.822 4.34164 126.142 4.23487C126.427 4.09253 126.747 4.05694 127.068 4.05694V0.854092C125.502 0.854092 124.149 1.3879 123.082 2.4911C122.014 3.59431 121.445 4.87544 121.445 6.40569C121.445 7.93594 122.014 9.25267 123.082 10.3559Z" fill="black"/>
<path d="M142.406 11.9929C140.84 11.9929 139.523 11.4591 138.42 10.3559C137.352 9.25267 136.783 7.93594 136.783 6.40569C136.783 4.87544 137.352 3.59431 138.42 2.4911C139.488 1.3879 140.84 0.854092 142.406 0.854092V4.05694C142.085 4.05694 141.765 4.09253 141.48 4.23487C141.16 4.34164 140.911 4.51957 140.698 4.76868C140.484 4.98221 140.306 5.23132 140.199 5.51601C140.093 5.80071 140.021 6.121 140.021 6.40569C140.021 7.08185 140.235 7.61566 140.698 8.11388C141.196 8.57651 141.73 8.82562 142.441 8.82562H147.246C148.811 8.82562 150.128 9.35943 151.231 10.4626C152.335 11.5658 152.904 12.8826 152.904 14.4128C152.904 15.9431 152.335 17.2598 151.231 18.363C150.164 19.4306 148.811 20 147.246 20V16.7972C147.566 16.7972 147.886 16.7616 148.171 16.6192C148.491 16.5125 148.74 16.3345 148.954 16.121C149.167 15.9075 149.345 15.6584 149.452 15.3737C149.559 15.089 149.63 14.7687 149.63 14.4484C149.63 13.8078 149.381 13.2384 148.918 12.7758C148.42 12.3132 147.886 12.0641 147.21 12.0641H142.406V11.9929Z" fill="black"/>
<path d="M50.4491 5.61679H46.4578V20H50.4491V5.61679Z" fill="black"/>
<path fill-rule="evenodd" clip-rule="evenodd" d="M22.5817 5.61679C18.5903 5.61679 15.39 8.85301 15.39 12.8084C15.39 16.7997 18.6263 20 22.5817 20C26.573 20 29.7733 16.7638 29.7733 12.8084C29.7733 8.81706 26.573 5.61679 22.5817 5.61679ZM22.5817 16.0087C20.8197 16.0087 19.3814 14.5703 19.3814 12.8084C19.3814 11.0465 20.8197 9.60813 22.5817 9.60813C24.3436 9.60813 25.7819 11.0465 25.7819 12.8084C25.7819 14.5703 24.3436 16.0087 22.5817 16.0087Z" fill="black"/>
<path fill-rule="evenodd" clip-rule="evenodd" d="M62.6029 0.618652H66.5943V12.8084C66.5943 16.7638 63.3581 20 59.4027 20C55.4473 20 52.2111 16.7998 52.2111 12.8084C52.2111 8.85304 55.4113 5.61682 59.4027 5.61682C60.5533 5.61682 61.6321 5.90448 62.6029 6.37194V0.618652ZM56.2024 12.8084C56.2024 14.5704 57.6407 16.0087 59.4027 16.0087C61.1646 16.0087 62.6029 14.5704 62.6029 12.8084C62.6029 11.0465 61.1646 9.60816 59.4027 9.60816C57.6407 9.60816 56.2024 11.0465 56.2024 12.8084Z" fill="black"/>
<path d="M44.588 5.58086H40.1292L35.7423 11.6218C35.5625 11.8735 35.4546 12.1612 35.3827 12.4488V0.618652H31.3914V20H35.3827V13.132C35.4187 13.4197 35.5625 13.7074 35.7423 13.9591L40.1292 20H44.588L39.5179 13.0242C39.41 12.8803 39.41 12.7006 39.5179 12.5567L44.588 5.58086Z" fill="black"/>
</g>
<defs>
<clipPath id="clip0">
<rect width="153" height="20" fill="white"/>
</clipPath>
</defs>
</svg>
